<?xml version="1.0" standalone="no"?>
<!DOCTYPE svg PUBLIC "-//W3C//DTD SVG 20010904//EN"
 "http://www.w3.org/TR/2001/REC-SVG-20010904/DTD/svg10.dtd">
<svg version="1.0" xmlns="http://www.w3.org/2000/svg"
 width="764.000000pt" height="764.000000pt" viewBox="0 0 764.000000 764.000000"
 preserveAspectRatio="xMidYMid meet">
<metadata>
Created by potrace 1.11, written by Peter Selinger 2001-2013
</metadata>
<g transform="translate(0.000000,764.000000) scale(0.100000,-0.100000)"
fill="#000000" stroke="none">
<path d="M3796 6321 c-2 -3 -4 -130 -4 -281 0 -151 -1 -293 -1 -315 l-1 -40
-318 1 -319 2 1 -322 1 -321 -320 0 -320 0 0 -322 0 -323 -250 1 c-137 0 -280
0 -317 0 l-68 -1 0 -317 0 -318 -323 1 -324 2 1 -322 1 -321 -320 0 -320 0 -1
-636 -1 -637 317 0 317 0 0 315 c0 172 3 316 6 319 4 5 519 8 622 5 20 -1 20
-8 19 -320 l-1 -319 321 1 321 2 -1 -321 -2 -322 317 2 316 1 2 295 c1 162 2
307 2 323 l1 27 641 -2 641 -3 1 -321 0 -321 318 0 317 0 -1 319 -2 318 60 1
c33 0 178 1 322 1 l261 0 1 315 c0 174 2 318 5 320 3 3 148 6 323 7 l318 1 -1
-321 -2 -321 318 0 317 0 1 638 1 637 -320 -1 -319 -2 -1 25 c0 14 -1 158 -1
321 l0 297 -324 -2 -324 -1 -2 319 -3 318 -315 -1 -315 -1 0 323 0 322 -320 0
-320 0 2 300 c1 165 2 311 2 325 l1 25 318 0 317 0 2 316 2 317 -635 0 c-349
-1 -636 -3 -638 -7z"/>
<path d="M5148 5682 l-68 -3 0 -309 0 -310 310 0 310 0 -2 311 -3 311 -240 1
c-132 1 -270 1 -307 -1z"/>
</g>
</svg>
